<?xml version="1.0" encoding="UTF-8"?>
<svg id="Layer_1" xmlns="http://www.w3.org/2000/svg" version="1.1" viewBox="0 0 1692 432">
  <!-- Generator: Adobe Illustrator 29.2.1, SVG Export Plug-In . SVG Version: 2.1.0 Build 116)  -->
  <defs>
    <style>
      .st0 {
        fill: #ffcb1c;
      }

      .st1, .st2 {
        fill: #524935;
      }

      .st2 {
        fill-rule: evenodd;
      }
    </style>
  </defs>
  <g>
    <g id="V">
      <path class="st1" d="M294.6,116.1c0-.2,0-.3-.2-.3,0,0-2,0-3.2,0-13.2,0-36.9,7.2-36.9,7.2-.2,0-.4.2-.4.4l-29.6,63.6c0,.2,0,.3.2.3h36.8c.2,0,.4-.1.5-.3l33-70.8Z"/>
      <g id="original">
        <path class="st1" d="M208.4,221.5c-.2,0-.4.1-.5.3l-10.1,21.6c0,.2-.2.4-.3.6l-.2.3c0,.2-.2.4-.3.6l-14.9,31.9c0,.2-.2.2-.3,0l-19.9-42.6c0-.2-.2-.4-.3-.6L91.5,82.9c0-.2-.3-.3-.5-.3h-36.8c-.2,0-.3.1-.2.3l109.1,234.1c0,.2.2.4.3.6l15.1,32.5c0,.2.3.3.5.3h6c.2,0,.4-.1.5-.3l15.1-32.5c0-.2.2-.4.3-.6l.7-1.4c0-.2.2-.4.3-.6l14.4-30.9c0-.2.2-.4.3-.6l1.2-2.6c0-.2.2-.4.3-.6l27.3-58.5c0-.2,0-.3-.2-.3h-36.8Z"/>
      </g>
    </g>
    <g id="e">
      <path class="st0" d="M182.1,271.8l14.8-31.8c-1.3-6.8-2-14-2.2-21.5h229.8c-.3-34.9-9.7-64-28.2-87.3-26-33-60.7-49.5-104.3-49.5s-76,16.1-101.3,48.3c-19.9,25.4-29.8,54.2-29.8,86.6s.1,7.1.4,10.6l.6,1.4,20.2,43.2ZM227.9,137.3c18-16.1,39.6-24.2,64.6-24.2s29.7,3.2,43.5,9.6c13.8,6.4,24.9,14.9,33.2,25.4,8.4,10.5,14.8,24.5,19.2,42h-190.4c6.7-23.5,16.7-41.1,29.9-52.8Z"/>
      <path class="st0" d="M366.8,288.9c-2.2,2.4-4.3,4.4-6.4,6.2-8.6,7.5-19.1,13.5-31.4,18-12.3,4.5-24.9,6.8-38,6.8-26.9,0-49.6-9.5-67.9-28.4-1.8-1.8-3.4-3.7-5-5.6l-14.3,30.8-.2.4c22.8,22.1,52.9,33.1,90.3,33.1s35.6-2.9,50.5-8.6c14.9-5.7,28.3-14.1,40.2-25,1.7-1.6,3.4-3.2,5-4.9l-22.8-22.8Z"/>
    </g>
  </g>
  <g>
    <g id="braille">
      <path class="st1" d="M1352.7,322.3c4.5,0,8.2-3.7,8.2-8.2,0-4.2-4.3-8.6-8.5-8.6s-8.4,4.4-8.4,8.6c0,4.3,4.3,8.3,8.8,8.2Z"/>
      <path class="st1" d="M1437.2,305.5c-4.2,0-8.5,4.2-8.5,8.5s4.1,8.3,8.6,8.3,8.1-3.6,8.3-8.1c.1-4.2-4.2-8.6-8.4-8.7Z"/>
      <path class="st1" d="M1529.6,313.9c0-4.2-4.6-8.5-8.7-8.4-4.2,0-8.4,4.6-8.2,8.8.2,4.3,4.5,8.2,9,8,4.5-.1,8-4,7.9-8.4Z"/>
      <path class="st1" d="M1605.1,305.5c-4.2,0-8.5,4.3-8.4,8.6,0,4.3,4.2,8.3,8.7,8.2,4.5,0,8.2-3.8,8.2-8.2,0-4.2-4.3-8.6-8.5-8.6Z"/>
      <path class="st1" d="M1100.8,322.4c4.5,0,8.2-3.8,8.2-8.2,0-4.2-4.3-8.6-8.6-8.6-4.1,0-8.4,4.3-8.4,8.6,0,4.3,4.2,8.3,8.7,8.2Z"/>
      <path class="st1" d="M988,322.3c4.6.3,8.6-3.3,8.7-8,.3-4.1-4-8.7-8.2-8.8-4.1-.1-8.3,3.9-8.6,8-.3,4.3,3.6,8.6,8.1,8.8Z"/>
      <path class="st1" d="M912.8,314c0-4.2-4.5-8.6-8.6-8.5-4.3,0-8.4,4.5-8.4,8.7.2,4.3,4.5,8.2,8.9,8.1,4.4,0,8.1-3.9,8.1-8.3Z"/>
      <path class="st1" d="M548.1,314.1c0-4.1-4.5-8.6-8.6-8.6-4.2,0-8.4,4.4-8.3,8.7,0,4.3,4.3,8.3,8.8,8.2,4.5,0,8.1-3.8,8.1-8.3Z"/>
      <path class="st1" d="M623.9,322.3c4.5,0,8-3.7,8.1-8.2,0-4.1-4.4-8.6-8.5-8.6-4.1,0-8.4,4.3-8.3,8.6,0,4.3,4.3,8.3,8.7,8.2Z"/>
      <path class="st1" d="M716.1,314.1c0-4.1-4.4-8.6-8.6-8.6-4.2,0-8.4,4.3-8.4,8.6,0,4.3,4.3,8.3,8.7,8.2,4.4,0,8.2-3.7,8.2-8.2Z"/>
      <path class="st1" d="M800,313.9c-.1-4.1-4.7-8.5-8.8-8.3-4.2.1-8.3,4.6-8.1,8.9.1,4.3,4.5,8.2,9,7.9,4.4-.2,8-4,7.9-8.5Z"/>
      <path class="st1" d="M1248.9,313.9c0-4.1-4.6-8.5-8.7-8.4-4.2,0-8.4,4.5-8.2,8.8.1,4.3,4.5,8.2,8.9,8.1,4.5-.1,8.1-4,8-8.4Z"/>
      <path class="st1" d="M1577.4,322.3c4.5,0,8.1-3.8,8.1-8.3,0-4.1-4.4-8.6-8.5-8.6-4.2,0-8.4,4.3-8.4,8.6,0,4.3,4.2,8.3,8.7,8.2Z"/>
      <path class="st1" d="M1417.6,313.9c-.1-4.2-4.7-8.5-8.8-8.3-4.2.1-8.3,4.6-8.1,8.9.2,4.3,4.5,8.1,8.9,7.9,4.5-.2,8.1-4.1,7.9-8.5Z"/>
      <path class="st1" d="M1437.1,277.6c-4.2,0-8.4,4.3-8.3,8.6,0,4.2,4.5,8.4,8.8,8.2,4.4,0,8.1-3.9,8.1-8.4s-4.3-8.4-8.6-8.4Z"/>
      <path class="st1" d="M1268.7,294.4c4.5,0,8.4-4.1,8.2-8.6-.1-4.1-4.2-8.1-8.3-8.2-4.2-.1-8.6,4.2-8.6,8.4s4.4,8.5,8.7,8.4Z"/>
      <path class="st1" d="M1184.3,277.6c-4.2,0-8.4,4.4-8.2,8.6.1,4.2,4.6,8.3,8.8,8.2,4.4-.2,8-4,8-8.4s-4.3-8.5-8.6-8.4Z"/>
      <path class="st1" d="M988.4,277.6c-4.3-.1-8.6,4.1-8.7,8.4,0,4.2,4.3,8.4,8.7,8.4,4.4,0,8-3.7,8.2-8.2.3-4.2-4-8.6-8.2-8.6Z"/>
      <path class="st1" d="M828,285.9c0-4.2-4.5-8.4-8.8-8.3-4.1,0-8.2,4.3-8.2,8.4,0,4.2,4.3,8.4,8.6,8.4,4.5,0,8.4-4,8.3-8.6Z"/>
      <path class="st1" d="M735.4,277.6c-4.1,0-8.4,4.4-8.3,8.6.2,4.1,4.6,8.3,8.8,8.2,4.4-.1,8-3.9,8.1-8.4,0-4.2-4.3-8.5-8.6-8.4Z"/>
      <path class="st1" d="M660,286.1c.2-4.2-4.1-8.5-8.4-8.5-4.1,0-8.3,3.9-8.5,8.1-.2,4.2,4,8.5,8.4,8.8,4.4.2,8.5-3.7,8.5-8.3Z"/>
      <path class="st1" d="M1577.2,350.3c4.5.1,8.2-3.5,8.3-8,.2-4.2-4.4-9-8.7-8.9-3.9,0-8.1,4.4-8.1,8.5,0,4.3,3.9,8.3,8.5,8.4Z"/>
      <path class="st1" d="M1324.5,350.3c4.4,0,8.2-3.5,8.3-8,.1-4.1-4.2-8.7-8.3-8.9-4.1-.2-8.6,4.2-8.6,8.5,0,4.4,3.9,8.3,8.6,8.4Z"/>
      <path class="st1" d="M1240.6,350.3c4.5,0,8.2-3.7,8.3-8.1,0-4.1-4.3-8.6-8.4-8.8-4.1,0-8.5,4.3-8.5,8.6s4.1,8.2,8.6,8.3Z"/>
      <path class="st1" d="M1156.5,350.3c4.5.1,8.2-3.4,8.4-7.9.1-4.2-4.4-9-8.7-9-3.9,0-8.1,4.3-8.2,8.4,0,4.4,3.9,8.4,8.5,8.4Z"/>
      <path class="st1" d="M960.3,350.3c4.5.1,8.3-3.4,8.5-7.9.1-4.3-4.5-9-8.7-8.9-4,0-8.2,4.4-8.2,8.5,0,4.3,3.9,8.3,8.4,8.4Z"/>
      <path class="st1" d="M876.3,350.3c4.5.1,8.3-3.4,8.4-7.9.2-4.2-4.4-9-8.7-9-3.9,0-8.1,4.3-8.2,8.4,0,4.4,3.9,8.4,8.5,8.4Z"/>
      <path class="st1" d="M707.8,350.3c4.5,0,8.2-3.7,8.2-8.2,0-4.1-4.5-8.6-8.6-8.7-4.1,0-8.4,4.5-8.4,8.7,0,4.4,4.1,8.2,8.7,8.2Z"/>
      <path class="st1" d="M539.9,350.3c4.5,0,8.1-3.7,8.2-8.2,0-4.1-4.5-8.6-8.5-8.7-4.2,0-8.4,4.5-8.4,8.7,0,4.4,4.1,8.2,8.7,8.2Z"/>
      <path class="st1" d="M1248.9,286.1c0-4.2-4.2-8.5-8.5-8.5-4.1,0-8.2,3.9-8.4,8.1-.1,4.4,4.2,8.8,8.7,8.7,4.3,0,8.2-3.9,8.2-8.3Z"/>
      <path class="st1" d="M1332.8,285.9c0-4.2-4.4-8.4-8.7-8.3-4.4,0-8.3,4.3-8.2,8.7.1,4.2,4.6,8.3,8.9,8.1,4.4-.2,8.1-4.1,8-8.5Z"/>
      <path class="st1" d="M1165,286.2c0-4.2-4.2-8.6-8.4-8.6-4.1-.1-8.3,3.8-8.5,8.1-.2,4.4,4.1,8.8,8.7,8.8s8.1-3.8,8.3-8.2Z"/>
      <path class="st1" d="M1501.6,286.1c0-4.2-4.3-8.5-8.6-8.5-4.2,0-8.4,4.2-8.4,8.5,0,4.3,4.5,8.4,8.8,8.3,4.4,0,8.1-4,8.1-8.4Z"/>
      <path class="st1" d="M1577.1,294.4c4.2.1,8.2-3.6,8.4-8,.2-4.2-3.9-8.6-8.2-8.8-4.3-.2-8.6,3.9-8.6,8.3,0,4.2,4,8.4,8.4,8.6Z"/>
      <path class="st1" d="M1072.3,277.6c-4.3,0-8.3,4.3-8.2,8.7,0,4.2,4.5,8.3,8.8,8.2,4.3-.2,8.1-4.1,8-8.5,0-4.2-4.3-8.5-8.6-8.4Z"/>
      <path class="st1" d="M968.8,285.9c-.1-4.2-4.5-8.4-8.8-8.3-4.3,0-8.4,4.4-8.2,8.8.1,4.2,4.7,8.3,8.9,8.1,4.4-.2,8-4.1,8-8.6Z"/>
      <path class="st1" d="M876.1,277.6c-4.3,0-8.3,4.3-8.2,8.7,0,4.2,4.5,8.3,8.8,8.2,4.4-.2,8.2-4.1,8.1-8.5,0-4.2-4.3-8.5-8.7-8.4Z"/>
      <path class="st1" d="M539.6,277.6c-4.3,0-8.4,4.1-8.4,8.5,0,4.2,4.3,8.4,8.7,8.4,4.3,0,8.1-3.9,8.2-8.3,0-4.2-4.2-8.5-8.5-8.5Z"/>
      <path class="st1" d="M567.8,350.3c4.5,0,8.1-3.5,8.3-8,0-4.1-4.2-8.7-8.3-8.8-4-.1-8.5,4.3-8.6,8.6,0,4.3,4.1,8.3,8.6,8.3Z"/>
      <path class="st1" d="M1437.4,350.3c4.5,0,8.1-3.6,8.3-8,0-4.1-4.3-8.7-8.4-8.8-4,0-8.5,4.4-8.5,8.6s4.1,8.3,8.6,8.3Z"/>
      <path class="st2" d="M1352.7,322.3c-4.4,0-8.7-3.9-8.8-8.2,0-4.2,4.3-8.6,8.4-8.6s8.6,4.4,8.5,8.6c0,4.5-3.7,8.2-8.2,8.2Z"/>
      <path class="st2" d="M1437.2,305.5c4.2,0,8.6,4.5,8.4,8.7-.2,4.5-3.8,8.1-8.3,8.1s-8.6-4-8.6-8.3,4.3-8.6,8.5-8.5Z"/>
      <path class="st2" d="M1529.6,313.9c0,4.5-3.4,8.3-7.9,8.4-4.5.2-8.8-3.7-9-8-.1-4.3,4.1-8.8,8.2-8.8,4.1-.1,8.6,4.2,8.7,8.4Z"/>
      <path class="st2" d="M1605.1,305.5c4.2,0,8.5,4.5,8.5,8.6,0,4.5-3.7,8.2-8.2,8.2-4.4,0-8.7-4-8.7-8.2,0-4.3,4.2-8.7,8.4-8.6Z"/>
      <path class="st2" d="M1100.8,322.4c-4.5,0-8.7-4-8.7-8.2,0-4.3,4.2-8.7,8.4-8.6,4.2,0,8.6,4.4,8.6,8.6,0,4.5-3.8,8.2-8.2,8.2Z"/>
      <path class="st2" d="M988,322.3c-4.5-.3-8.4-4.5-8.1-8.8.3-4.1,4.6-8.1,8.6-8,4.2.1,8.4,4.7,8.2,8.8-.1,4.7-4.1,8.3-8.7,8Z"/>
      <path class="st2" d="M912.8,314c0,4.4-3.7,8.2-8.1,8.3-4.4.2-8.7-3.8-8.9-8.1,0-4.2,4.1-8.7,8.4-8.7,4.2,0,8.6,4.3,8.6,8.5Z"/>
      <path class="st2" d="M548.1,314.1c0,4.5-3.7,8.2-8.1,8.3-4.5.1-8.7-3.9-8.8-8.2,0-4.3,4.2-8.7,8.3-8.7,4.1,0,8.6,4.5,8.6,8.6Z"/>
      <path class="st2" d="M623.9,322.3c-4.5,0-8.7-3.9-8.7-8.2,0-4.3,4.2-8.7,8.3-8.6,4.1,0,8.6,4.5,8.5,8.6,0,4.5-3.6,8.2-8.1,8.2Z"/>
      <path class="st2" d="M716.1,314.1c0,4.5-3.8,8.2-8.2,8.2-4.4,0-8.7-3.9-8.7-8.2,0-4.3,4.2-8.7,8.4-8.6,4.2,0,8.6,4.5,8.6,8.6Z"/>
      <path class="st2" d="M800,313.9c0,4.5-3.5,8.3-7.9,8.5-4.5.2-8.8-3.7-9-7.9-.2-4.3,3.9-8.7,8.1-8.9,4.1-.1,8.7,4.2,8.8,8.3Z"/>
      <path class="st2" d="M1248.9,313.9c0,4.5-3.5,8.3-8,8.4-4.4.2-8.8-3.7-8.9-8.1-.1-4.3,4-8.7,8.2-8.8,4.1,0,8.6,4.3,8.7,8.4Z"/>
      <path class="st2" d="M1577.4,322.3c-4.5,0-8.7-3.9-8.7-8.2,0-4.3,4.2-8.7,8.4-8.6,4.1,0,8.6,4.5,8.5,8.6,0,4.5-3.7,8.2-8.1,8.3Z"/>
      <path class="st2" d="M1417.6,313.9c.2,4.4-3.4,8.3-7.9,8.5-4.5.2-8.8-3.6-8.9-7.9-.2-4.3,3.9-8.8,8.1-8.9,4.1-.1,8.7,4.2,8.8,8.3Z"/>
      <path class="st2" d="M1437.1,277.6c4.3,0,8.6,4.2,8.6,8.4s-3.7,8.3-8.1,8.4c-4.2.1-8.7-4.1-8.8-8.2-.1-4.3,4.1-8.6,8.3-8.6Z"/>
      <path class="st2" d="M1268.7,294.4c-4.3,0-8.7-4.2-8.7-8.4s4.3-8.5,8.6-8.4c4.1,0,8.2,4.1,8.3,8.2.2,4.6-3.7,8.6-8.2,8.6Z"/>
      <path class="st2" d="M1184.3,277.6c4.3,0,8.6,4.2,8.6,8.4s-3.6,8.3-8,8.4c-4.3.1-8.7-4-8.8-8.2-.2-4.2,4-8.6,8.2-8.6Z"/>
      <path class="st2" d="M988.4,277.6c4.2,0,8.5,4.5,8.2,8.6-.1,4.5-3.8,8.2-8.2,8.2-4.4,0-8.7-4.2-8.7-8.4,0-4.3,4.4-8.6,8.7-8.4Z"/>
      <path class="st2" d="M828,285.9c0,4.5-3.8,8.6-8.3,8.6-4.3,0-8.7-4.2-8.6-8.4,0-4.1,4.1-8.3,8.2-8.4,4.3-.1,8.7,4,8.8,8.3Z"/>
      <path class="st2" d="M735.4,277.6c4.3,0,8.6,4.2,8.6,8.4,0,4.5-3.7,8.3-8.1,8.4-4.3.1-8.7-4.1-8.8-8.2,0-4.2,4.2-8.6,8.3-8.6Z"/>
      <path class="st2" d="M660,286.1c0,4.6-4.1,8.5-8.5,8.3-4.4-.2-8.5-4.5-8.4-8.8.2-4.2,4.4-8.2,8.5-8.1,4.3,0,8.6,4.3,8.4,8.5Z"/>
      <path class="st2" d="M1577.2,350.3c-4.6,0-8.6-4-8.5-8.4,0-4.1,4.2-8.4,8.1-8.5,4.3,0,8.9,4.7,8.7,8.9-.2,4.5-3.9,8.1-8.3,8Z"/>
      <path class="st2" d="M1324.5,350.3c-4.6,0-8.6-4-8.6-8.4,0-4.2,4.5-8.7,8.6-8.5,4.1.2,8.4,4.8,8.3,8.9-.2,4.4-3.9,8-8.3,8Z"/>
      <path class="st2" d="M1240.6,350.3c-4.5,0-8.6-3.9-8.6-8.3s4.4-8.7,8.5-8.6c4.1.1,8.5,4.7,8.4,8.8,0,4.4-3.8,8.1-8.3,8.1Z"/>
      <path class="st2" d="M1156.5,350.3c-4.6,0-8.6-4.1-8.5-8.4,0-4.1,4.3-8.4,8.2-8.4,4.3,0,8.9,4.7,8.7,9-.2,4.5-4,8-8.4,7.9Z"/>
      <path class="st2" d="M960.3,350.3c-4.5,0-8.5-4-8.4-8.4,0-4.1,4.3-8.4,8.2-8.5,4.2,0,8.8,4.7,8.7,8.9-.2,4.5-4,8-8.5,7.9Z"/>
      <path class="st2" d="M876.3,350.3c-4.5,0-8.5-4.1-8.5-8.4.1-4.1,4.3-8.4,8.2-8.4,4.3,0,8.9,4.7,8.7,9-.2,4.5-4,8-8.4,7.9Z"/>
      <path class="st2" d="M707.8,350.3c-4.6,0-8.7-3.8-8.7-8.2,0-4.2,4.3-8.7,8.4-8.7,4.1,0,8.6,4.6,8.6,8.7,0,4.5-3.8,8.1-8.2,8.2Z"/>
      <path class="st2" d="M539.9,350.3c-4.6,0-8.7-3.8-8.7-8.2,0-4.2,4.2-8.7,8.4-8.7,4,0,8.5,4.6,8.5,8.7,0,4.5-3.7,8.1-8.2,8.2Z"/>
      <path class="st2" d="M1248.9,286.1c0,4.4-3.9,8.3-8.2,8.3-4.5,0-8.8-4.3-8.7-8.7.2-4.2,4.3-8.2,8.4-8.1,4.3,0,8.6,4.3,8.5,8.5Z"/>
      <path class="st2" d="M1332.8,285.9c0,4.4-3.6,8.3-8,8.5-4.3.2-8.8-3.9-8.9-8.1,0-4.4,3.9-8.7,8.2-8.7,4.3,0,8.6,4.1,8.7,8.3Z"/>
      <path class="st2" d="M1165,286.2c-.2,4.4-4,8.2-8.3,8.2s-8.8-4.4-8.7-8.8c.2-4.2,4.4-8.2,8.5-8.1,4.3,0,8.5,4.4,8.4,8.6Z"/>
      <path class="st2" d="M1501.6,286.1c0,4.4-3.7,8.3-8.1,8.4-4.3,0-8.7-4-8.8-8.3,0-4.3,4.1-8.6,8.4-8.5,4.3,0,8.6,4.3,8.6,8.5Z"/>
      <path class="st2" d="M1577.1,294.4c-4.4-.1-8.5-4.3-8.4-8.6,0-4.4,4.3-8.5,8.6-8.3,4.3.2,8.4,4.6,8.2,8.8-.2,4.4-4.2,8.2-8.4,8Z"/>
      <path class="st2" d="M1072.3,277.6c4.3,0,8.6,4.2,8.6,8.4,0,4.4-3.6,8.3-8,8.5-4.3.1-8.8-3.9-8.8-8.2-.2-4.4,3.9-8.7,8.2-8.7Z"/>
      <path class="st2" d="M968.8,285.9c0,4.4-3.6,8.3-8,8.6-4.3.2-8.8-3.8-8.9-8.1-.2-4.4,3.9-8.7,8.2-8.8,4.2-.1,8.6,4.1,8.8,8.3Z"/>
      <path class="st2" d="M876.1,277.6c4.4,0,8.7,4.2,8.7,8.4,0,4.4-3.7,8.3-8.1,8.5-4.2.1-8.7-3.9-8.8-8.2-.1-4.4,3.9-8.7,8.2-8.7Z"/>
      <path class="st2" d="M539.6,277.6c4.3,0,8.6,4.3,8.5,8.5,0,4.4-3.9,8.3-8.2,8.3-4.4,0-8.7-4.1-8.7-8.4,0-4.3,4.1-8.6,8.4-8.5Z"/>
      <path class="st2" d="M567.8,350.3c-4.5,0-8.7-4-8.6-8.3,0-4.2,4.5-8.7,8.6-8.6,4.1.1,8.4,4.7,8.3,8.8-.1,4.5-3.8,8.1-8.3,8Z"/>
      <path class="st2" d="M1437.4,350.3c-4.6,0-8.6-4-8.6-8.3s4.5-8.7,8.5-8.6c4.1.1,8.4,4.7,8.4,8.8-.2,4.4-3.8,8.1-8.3,8Z"/>
    </g>
    <g>
      <path class="st1" d="M525.6,113.3h10.5l25.8,56,25.5-56h10.6l-35.2,76.9h-1.8l-35.4-76.9Z"/>
      <path class="st1" d="M616.5,81.7c2.3,0,4.2.8,5.8,2.4,1.6,1.6,2.4,3.5,2.4,5.8s-.8,4.1-2.4,5.7c-1.6,1.6-3.5,2.4-5.8,2.4s-4.1-.8-5.7-2.4c-1.6-1.6-2.4-3.5-2.4-5.7s.8-4.2,2.4-5.8c1.6-1.6,3.5-2.4,5.7-2.4ZM611.6,113.3h9.9v76.9h-9.9v-76.9Z"/>
      <path class="st1" d="M680.7,121.7l-6.4,6.6c-5.3-5.1-10.5-7.7-15.5-7.7s-6,1.1-8.3,3.2c-2.3,2.1-3.4,4.6-3.4,7.4s.9,4.9,2.8,7.1c1.9,2.3,5.9,5,11.9,8.1,7.4,3.8,12.4,7.5,15,11,2.6,3.6,3.9,7.6,3.9,12.1s-2.2,11.7-6.7,16c-4.4,4.4-10,6.6-16.6,6.6s-8.7-1-12.7-2.9c-4-1.9-7.4-4.6-10-8l6.2-7.1c5.1,5.7,10.4,8.5,16.1,8.5s7.3-1.3,10.1-3.8c2.8-2.5,4.2-5.5,4.2-9s-.9-5.3-2.8-7.6c-1.8-2.2-6-4.9-12.5-8.2-6.9-3.6-11.7-7.1-14.2-10.6-2.5-3.5-3.8-7.5-3.8-11.9s2-10.7,6-14.6c4-3.9,9-5.8,15.1-5.8s14.2,3.5,21.4,10.4Z"/>
      <path class="st1" d="M701.6,81.7c2.3,0,4.2.8,5.8,2.4,1.6,1.6,2.4,3.5,2.4,5.8s-.8,4.1-2.4,5.7c-1.6,1.6-3.5,2.4-5.8,2.4s-4.1-.8-5.7-2.4c-1.6-1.6-2.4-3.5-2.4-5.7s.8-4.2,2.4-5.8c1.6-1.6,3.5-2.4,5.7-2.4ZM696.7,113.3h9.9v76.9h-9.9v-76.9Z"/>
      <path class="st1" d="M763.5,111.3c11.8,0,21.7,4.3,29.4,12.9,7.1,7.8,10.6,17.1,10.6,27.8s-3.7,20.1-11.2,28.2c-7.5,8-17.1,12-28.8,12s-21.4-4-28.9-12c-7.5-8-11.2-17.4-11.2-28.2s3.5-19.9,10.6-27.7c7.8-8.6,17.6-12.9,29.5-12.9ZM763.5,121c-8.2,0-15.3,3-21.2,9.1-5.9,6.1-8.9,13.4-8.9,22s1.4,10.7,4,15.5c2.7,4.8,6.3,8.5,10.9,11.1,4.6,2.6,9.6,3.9,15.1,3.9s10.5-1.3,15.1-3.9c4.6-2.6,8.2-6.3,10.9-11.1,2.7-4.8,4-10,4-15.5,0-8.6-3-16-8.9-22-5.9-6.1-13-9.1-21.2-9.1Z"/>
      <path class="st1" d="M821.9,113.3h9.9v13.8c4-5.3,8.3-9.2,13.1-11.8,4.8-2.6,10-3.9,15.7-3.9s10.8,1.5,15.3,4.4c4.5,2.9,7.7,6.9,9.9,11.8,2.1,5,3.2,12.7,3.2,23.1v39.6h-9.9v-36.7c0-8.9-.4-14.8-1.1-17.7-1.1-5.1-3.3-8.9-6.6-11.5-3.3-2.6-7.5-3.9-12.7-3.9s-11.3,2-16.1,5.9c-4.7,4-7.9,8.9-9.4,14.7-.9,3.8-1.4,10.8-1.4,20.9v28.2h-9.9v-76.9Z"/>
      <path class="st1" d="M1014.9,164.7l8.3,4.4c-2.7,5.4-5.9,9.7-9.5,13-3.6,3.3-7.6,5.8-12.1,7.5-4.5,1.7-9.5,2.6-15.2,2.6-12.5,0-22.4-4.1-29.4-12.3-7.1-8.2-10.6-17.5-10.6-27.9s3-18.4,9-26.1c7.6-9.7,17.7-14.6,30.5-14.6s23.6,5,31.4,14.9c5.6,7,8.4,15.8,8.5,26.3h-69.2c.2,8.9,3,16.3,8.6,22,5.5,5.7,12.3,8.6,20.4,8.6s7.7-.7,11.4-2c3.7-1.4,6.9-3.2,9.4-5.4,2.6-2.2,5.4-5.9,8.4-10.9ZM1014.9,144c-1.3-5.3-3.2-9.5-5.8-12.6-2.5-3.2-5.9-5.7-10-7.6-4.1-1.9-8.5-2.9-13.1-2.9-7.5,0-14,2.4-19.5,7.3-4,3.5-7,8.8-9,15.9h57.3Z"/>
      <path class="st1" d="M1044.2,113.3h9.9v13.3c3.4-4.9,7-8.5,10.6-10.7,5-3,10.3-4.5,15.8-4.5s7.3.7,10.6,2.2c3.4,1.5,6.1,3.4,8.2,5.8,2.1,2.4,4,5.9,5.5,10.4,3.3-6,7.4-10.6,12.3-13.7,4.9-3.1,10.2-4.7,15.9-4.7s10,1.3,14.1,4c4.1,2.7,7.1,6.4,9.1,11.2,2,4.8,3,12,3,21.6v42h-10.1v-42c0-8.2-.6-13.9-1.8-17-1.2-3.1-3.2-5.6-6-7.5-2.8-1.9-6.2-2.8-10.2-2.8s-9.2,1.4-13.1,4.2c-4,2.8-6.9,6.6-8.7,11.3-1.8,4.7-2.7,12.6-2.7,23.6v30.1h-9.9v-39.4c0-9.3-.6-15.6-1.7-18.9-1.1-3.3-3.2-6-6-8-2.9-2-6.3-3-10.2-3s-8.8,1.4-12.8,4.1c-4,2.8-6.9,6.5-8.8,11.1-1.9,4.7-2.9,11.8-2.9,21.4v32.6h-9.9v-76.9Z"/>
      <path class="st1" d="M1180.1,113.3h9.9v14.1c3.9-5.4,8.4-9.4,13.5-12.1,5.1-2.7,10.8-4,17-4,10.9,0,20.3,3.9,28,11.8,7.8,7.9,11.6,17.3,11.6,28.4s-3.8,20.9-11.5,28.8c-7.7,7.9-17,11.8-27.8,11.8s-11.7-1.3-16.9-3.8c-5.1-2.6-9.8-6.3-13.9-11.4v41.3h-9.9v-105ZM1219.7,120.9c-8.5,0-15.8,3-21.6,9-5.8,6-8.8,13.4-8.8,22.3s1.3,11.1,3.9,15.7c2.6,4.7,6.3,8.4,11.2,11.1,4.9,2.7,10,4.1,15.4,4.1s10.3-1.4,15-4.1c4.7-2.8,8.4-6.6,11.2-11.5,2.8-4.9,4.2-10.1,4.2-15.5s-1.4-10.6-4.1-15.5c-2.8-4.9-6.5-8.7-11.1-11.4-4.6-2.7-9.7-4.1-15.2-4.1Z"/>
      <path class="st1" d="M1315.1,111.3c11.8,0,21.7,4.3,29.4,12.9,7.1,7.8,10.6,17.1,10.6,27.8s-3.7,20.1-11.2,28.2c-7.5,8-17.1,12-28.8,12s-21.4-4-28.9-12c-7.5-8-11.2-17.4-11.2-28.2s3.5-19.9,10.6-27.7c7.8-8.6,17.6-12.9,29.5-12.9ZM1315.1,121c-8.2,0-15.3,3-21.2,9.1-5.9,6.1-8.9,13.4-8.9,22s1.4,10.7,4,15.5c2.7,4.8,6.3,8.5,10.9,11.1,4.6,2.6,9.6,3.9,15.1,3.9s10.5-1.3,15.1-3.9c4.6-2.6,8.2-6.3,10.9-11.1,2.7-4.8,4-10,4-15.5,0-8.6-3-16-8.9-22-5.9-6.1-13-9.1-21.2-9.1Z"/>
      <path class="st1" d="M1363.1,113.3h10.2l23.6,55.8,24.5-55.8h1.8l24.7,55.8,24-55.8h10.3l-33.4,76.9h-1.8l-24.6-55-24.6,55h-1.8l-32.8-76.9Z"/>
      <path class="st1" d="M1558.4,164.7l8.3,4.4c-2.7,5.4-5.9,9.7-9.5,13-3.6,3.3-7.6,5.8-12.1,7.5-4.5,1.7-9.5,2.6-15.2,2.6-12.5,0-22.4-4.1-29.4-12.3-7.1-8.2-10.6-17.5-10.6-27.9s3-18.4,9-26.1c7.6-9.7,17.7-14.6,30.5-14.6s23.6,5,31.4,14.9c5.6,7,8.4,15.8,8.5,26.3h-69.2c.2,8.9,3,16.3,8.6,22,5.5,5.7,12.3,8.6,20.4,8.6s7.7-.7,11.4-2c3.7-1.4,6.9-3.2,9.4-5.4,2.6-2.2,5.4-5.9,8.4-10.9ZM1558.4,144c-1.3-5.3-3.2-9.5-5.8-12.6-2.5-3.2-5.9-5.7-10-7.6-4.1-1.9-8.5-2.9-13.1-2.9-7.5,0-14,2.4-19.5,7.3-4,3.5-7,8.8-9,15.9h57.3Z"/>
      <path class="st1" d="M1584,113.3h10.1v11.2c3-4.4,6.2-7.7,9.5-9.9,3.3-2.2,6.8-3.3,10.5-3.3s5.7.9,8.8,2.6l-5.2,8.3c-2.1-.9-3.8-1.3-5.2-1.3-3.3,0-6.5,1.4-9.5,4.1-3.1,2.7-5.4,6.9-7,12.6-1.2,4.4-1.8,13.2-1.8,26.6v26h-10.1v-76.9Z"/>
    </g>
    <rect class="st1" x="506.9" y="230.9" width="1131.1" height="11.2" rx=".8" ry=".8"/>
  </g>
</svg>